<svg xmlns="http://www.w3.org/2000/svg" xml:space="preserve" viewBox="0 0 24 24"><path fill="#767676" d="M.567 19.762a9.01 9.01 0 0 1 5.623-8.337c-4.03-3.756.114-10.299 5.229-8.274 5.115 2.025 3.657 9.632-1.852 9.61a7.011 7.011 0 0 0-6.93 6h6.251c1.334 0 3.921 2 2.588 2h-9.91a1 1 0 0 1-1-1zm6-12c0 2.673 3.231 4.01 5.121 2.121 1.89-1.89.552-5.121-2.121-5.121a3 3 0 0 0-3 3z"/><path fill="none" stroke="#767676" stroke-width="1.547" d="m9.809 15.491 2.578 2.578m3.61-4.125 2.578-2.579m-4.641 4.126 2.578 2.578 6.189-6.704"/></svg>